<svg width="19" height="21" viewBox="0 0 19 21" fill="none" xmlns="http://www.w3.org/2000/svg">
<ellipse cx="9.4375" cy="11" rx="9.21875" ry="10" fill="#D9D9D9"/>
<path d="M6.67187 13C8.70843 13 10.3594 10.9853 10.3594 8.5C10.3594 6.01472 8.70843 4 6.67187 4C4.63532 4 2.98438 6.01472 2.98438 8.5C2.98438 10.9853 4.63532 13 6.67187 13Z" stroke="#0E254B" stroke-opacity="0.6" stroke-width="1.53846" stroke-miterlimit="10"/>
<path d="M11.2812 4.16864C11.7799 3.99427 12.3029 3.95455 12.815 4.05215C13.3271 4.14974 13.8164 4.38239 14.2499 4.73443C14.6834 5.08647 15.0512 5.54971 15.3283 6.09296C15.6054 6.63621 15.7855 7.24686 15.8565 7.88376C15.9274 8.52067 15.8876 9.16905 15.7396 9.78523C15.5916 10.4014 15.339 10.9711 14.9987 11.4559C14.6583 11.9407 14.2383 12.3294 13.7667 12.5957C13.2952 12.8621 12.7831 12.9999 12.265 13" stroke="#0E254B" stroke-opacity="0.6" stroke-width="1.53846" stroke-linecap="round" stroke-linejoin="round"/>
<path d="M1.60156 15.5C2.17346 14.5733 2.47175 14.3169 3.3542 13.7948C4.23666 13.2726 5.21645 13 6.21084 13C7.20523 13 8.18503 13.2725 9.06752 13.7945C9.95002 14.3166 10.7093 15.0729 11.2812 15.9996" stroke="#0E254B" stroke-opacity="0.6" stroke-width="1.53846" stroke-linecap="round" stroke-linejoin="round"/>
<path d="M12.2031 13C13.288 12.9992 14.3572 13.2714 15.32 13.7936C16.2828 14.3158 16.6501 14.0726 17.2734 15" stroke="#0E254B" stroke-opacity="0.6" stroke-width="1.53846" stroke-linecap="round" stroke-linejoin="round"/>
</svg>
