<svg width="20" height="20" viewBox="0 0 20 20" fill="none" xmlns="http://www.w3.org/2000/svg">
<path d="M11.6668 14.9993C11.8878 14.9993 12.0998 14.9115 12.2561 14.7552C12.4124 14.599 12.5002 14.387 12.5002 14.166V12.4993C12.5002 12.2783 12.4124 12.0663 12.2561 11.9101C12.0998 11.7538 11.8878 11.666 11.6668 11.666C11.4458 11.666 11.2338 11.7538 11.0776 11.9101C10.9213 12.0663 10.8335 12.2783 10.8335 12.4993V14.166C10.8335 14.387 10.9213 14.599 11.0776 14.7552C11.2338 14.9115 11.4458 14.9993 11.6668 14.9993ZM8.33349 14.9993C8.5545 14.9993 8.76646 14.9115 8.92274 14.7552C9.07902 14.599 9.16682 14.387 9.16682 14.166V12.4993C9.16682 12.2783 9.07902 12.0663 8.92274 11.9101C8.76646 11.7538 8.5545 11.666 8.33349 11.666C8.11247 11.666 7.90051 11.7538 7.74423 11.9101C7.58795 12.0663 7.50015 12.2783 7.50015 12.4993V14.166C7.50015 14.387 7.58795 14.599 7.74423 14.7552C7.90051 14.9115 8.11247 14.9993 8.33349 14.9993ZM15.8335 4.99931H14.6835L13.2418 2.12431C13.1978 2.01852 13.1324 1.92296 13.0497 1.84358C12.9671 1.76421 12.8689 1.70274 12.7614 1.66301C12.6539 1.62328 12.5394 1.60615 12.425 1.61268C12.3106 1.61922 12.1988 1.64928 12.0965 1.70098C11.9942 1.75269 11.9037 1.82494 11.8307 1.9132C11.7576 2.00147 11.7035 2.10386 11.6718 2.21397C11.64 2.32409 11.6314 2.43956 11.6463 2.55318C11.6612 2.6668 11.6994 2.77612 11.7585 2.87431L12.8168 4.99931H7.18349L8.24182 2.87431C8.32271 2.68007 8.32712 2.46241 8.25417 2.26505C8.18122 2.06769 8.03631 1.90522 7.84854 1.81028C7.66076 1.71534 7.44402 1.69494 7.24183 1.75319C7.03964 1.81144 6.86697 1.94402 6.75849 2.12431L5.31682 4.99931H4.16682C3.57781 5.00827 3.01088 5.22493 2.56603 5.61109C2.12117 5.99724 1.82696 6.52808 1.73529 7.10998C1.64363 7.69188 1.76038 8.28747 2.06497 8.79168C2.36957 9.2959 2.84242 9.67637 3.40015 9.86598L4.01682 16.0826C4.079 16.7015 4.36961 17.2749 4.83188 17.6909C5.29415 18.107 5.8949 18.3358 6.51682 18.3326H13.5002C14.1221 18.3358 14.7228 18.107 15.1851 17.6909C15.6474 17.2749 15.938 16.7015 16.0002 16.0826L16.6168 9.86598C17.1758 9.67581 17.6494 9.29395 17.9537 8.78805C18.2581 8.28214 18.3736 7.68484 18.2798 7.10193C18.186 6.51902 17.8889 5.98813 17.4411 5.60329C16.9934 5.21845 16.4239 5.00449 15.8335 4.99931ZM14.3252 15.916C14.3044 16.1222 14.2076 16.3134 14.0535 16.4521C13.8994 16.5907 13.6991 16.667 13.4918 16.666H6.50849C6.30118 16.667 6.10093 16.5907 5.94684 16.4521C5.79275 16.3134 5.69588 16.1222 5.67515 15.916L5.08349 9.99931H14.9168L14.3252 15.916ZM15.8335 8.33264H4.16682C3.94581 8.33264 3.73384 8.24485 3.57756 8.08857C3.42128 7.93229 3.33349 7.72032 3.33349 7.49931C3.33349 7.2783 3.42128 7.06634 3.57756 6.91006C3.73384 6.75378 3.94581 6.66598 4.16682 6.66598H15.8335C16.0545 6.66598 16.2665 6.75378 16.4227 6.91006C16.579 7.06634 16.6668 7.2783 16.6668 7.49931C16.6668 7.72032 16.579 7.93229 16.4227 8.08857C16.2665 8.24485 16.0545 8.33264 15.8335 8.33264Z" fill="white"/>
</svg>
