<svg width="270" height="54" viewBox="0 0 270 54" fill="none" xmlns="http://www.w3.org/2000/svg">
<path d="M27 0L33.0619 18.6565H52.6785L36.8083 30.1869L42.8702 48.8435L27 37.3131L11.1298 48.8435L17.1917 30.1869L1.32147 18.6565H20.9381L27 0Z" fill="#FF6B17"/>
<path d="M81 0L87.0619 18.6565H106.679L90.8083 30.1869L96.8702 48.8435L81 37.3131L65.1298 48.8435L71.1917 30.1869L55.3215 18.6565H74.9381L81 0Z" fill="#FF6B17"/>
<path d="M135 0L141.062 18.6565H160.679L144.808 30.1869L150.87 48.8435L135 37.3131L119.13 48.8435L125.192 30.1869L109.321 18.6565H128.938L135 0Z" fill="#FF6B17"/>
<path d="M189 0L195.062 18.6565H214.679L198.808 30.1869L204.87 48.8435L189 37.3131L173.13 48.8435L179.192 30.1869L163.321 18.6565H182.938L189 0Z" fill="#FF6B17"/>
<path d="M243 0L249.062 18.6565H268.679L252.808 30.1869L258.87 48.8435L243 37.3131L227.13 48.8435L233.192 30.1869L217.321 18.6565H236.938L243 0Z" fill="#D9D9D9"/>
</svg>
