<svg width="18" height="18" viewBox="0 0 18 18" fill="none" xmlns="http://www.w3.org/2000/svg">
<path d="M0 18L1.27221 13.3802C0.485673 12.0242 0.0730658 10.4886 0.0773638 8.91873C0.0773638 3.99953 4.10028 0 9.03868 0C11.437 0 13.6891 0.928232 15.3782 2.61359C17.0716 4.29896 18.0043 6.5404 18 8.92301C18 13.8422 13.9771 17.8417 9.03438 17.8417H9.03008C7.53008 17.8417 6.05587 17.4653 4.74498 16.7552L0 18ZM4.97278 15.1426L5.24355 15.3051C6.38681 15.981 7.6977 16.336 9.03438 16.3403H9.03868C13.1433 16.3403 16.4871 13.0166 16.4871 8.92728C16.4871 6.94677 15.7135 5.08603 14.308 3.68299C12.9026 2.27994 11.0286 1.50998 9.03868 1.50998C4.93409 1.5057 1.59026 4.82937 1.59026 8.91873C1.59026 10.3175 1.98137 11.682 2.72922 12.8626L2.90544 13.145L2.15329 15.8783L4.97278 15.1426Z" fill="#FF6B17"/>
<path d="M0 18L1.27221 13.3802C0.485673 12.0242 0.0730658 10.4886 0.0773638 8.91873C0.0773638 3.99953 4.10028 0 9.03868 0C11.437 0 13.6891 0.928232 15.3782 2.61359C17.0716 4.29896 18.0043 6.5404 18 8.92301C18 13.8422 13.9771 17.8417 9.03438 17.8417H9.03008C7.53008 17.8417 6.05587 17.4653 4.74498 16.7552L0 18ZM4.97278 15.1426L5.24355 15.3051C6.38681 15.981 7.6977 16.336 9.03438 16.3403H9.03868C13.1433 16.3403 16.4871 13.0166 16.4871 8.92728C16.4871 6.94677 15.7135 5.08603 14.308 3.68299C12.9026 2.27994 11.0286 1.50998 9.03868 1.50998C4.93409 1.5057 1.59026 4.82937 1.59026 8.91873C1.59026 10.3175 1.98137 11.682 2.72922 12.8626L2.90544 13.145L2.15329 15.8783L4.97278 15.1426Z" fill="#FF6B17"/>
<path d="M2.45 13.45L2 17.05L6.05 16.15L2.45 13V13.45Z" fill="#FF6B17"/>
<circle cx="9.1" cy="9.1" r="8.1" fill="#FF6B17"/>
<path fill-rule="evenodd" clip-rule="evenodd" d="M6.79938 5.18906C6.63176 4.81692 6.45554 4.80836 6.29651 4.80408C6.16757 4.7998 6.01715 4.7998 5.86672 4.7998C5.71629 4.7998 5.4756 4.85541 5.26929 5.07785C5.06299 5.30028 4.48706 5.83925 4.48706 6.93859C4.48706 8.03365 5.29078 9.09448 5.40253 9.2442C5.51428 9.39391 6.95411 11.7166 9.22774 12.6106C11.1189 13.3549 11.5057 13.2052 11.914 13.1667C12.3223 13.1282 13.2378 12.6278 13.4269 12.1059C13.6117 11.584 13.6117 11.1392 13.5558 11.0451C13.4999 10.9509 13.3495 10.8953 13.126 10.7841C12.9025 10.6729 11.8022 10.1339 11.5959 10.0569C11.3896 9.98422 11.2392 9.94572 11.0931 10.1682C10.9426 10.3906 10.5128 10.8911 10.3839 11.0408C10.255 11.1905 10.1217 11.2076 9.89823 11.0964C9.67474 10.9852 8.95267 10.7499 8.09737 9.98849C7.43118 9.39819 6.97989 8.66673 6.85096 8.44429C6.72202 8.22186 6.83806 8.10209 6.94981 7.99087C7.04866 7.89249 7.1733 7.72994 7.28505 7.60161C7.3968 7.47328 7.43548 7.37918 7.50855 7.22946C7.58161 7.07975 7.54723 6.95142 7.49136 6.8402C7.43548 6.73326 6.99709 5.62965 6.79938 5.18906Z" fill="#E2E5E8"/>
</svg>
